<svg width="1170" height="160" viewBox="0 0 1170 160" fill="none" xmlns="http://www.w3.org/2000/svg">
<g clip-path="url(#clip0_992_82)">
<g filter="url(#filter0_d_992_82)">
<rect x="32" y="16" width="1106" height="144" rx="15" fill="#192C42"/>
</g>
<g filter="url(#filter1_d_992_82)">
<rect width="1170" height="144" rx="15" fill="#2C4664"/>
</g>
<rect x="292" width="1" height="144" fill="#21364E"/>
<rect x="585" width="1" height="144" fill="#21364E"/>
<rect x="731" width="1" height="144" fill="#21364E"/>
<rect x="877" width="1" height="144" fill="#21364E"/>
<path d="M40.764 40L39.672 37.466H34.52L33.428 40H32.252L36.592 30.13H37.586L41.926 40H40.764ZM34.926 36.514H39.266L37.096 31.46L34.926 36.514ZM51.1599 40H49.8999L48.2199 36.836C48.0145 36.4533 47.7719 36.192 47.4919 36.052C47.2212 35.9027 46.8479 35.828 46.3719 35.828H44.5239V40H43.3899V30.13H47.4499C48.5232 30.13 49.3399 30.368 49.8999 30.844C50.4692 31.32 50.7539 32.02 50.7539 32.944C50.7539 33.7093 50.5345 34.33 50.0959 34.806C49.6665 35.2727 49.0505 35.5667 48.2479 35.688C48.4999 35.7627 48.7192 35.8887 48.9059 36.066C49.1019 36.2433 49.2792 36.4813 49.4379 36.78L51.1599 40ZM47.3519 34.876C48.1172 34.876 48.6865 34.7173 49.0599 34.4C49.4425 34.0827 49.6339 33.602 49.6339 32.958C49.6339 32.3233 49.4472 31.852 49.0739 31.544C48.7005 31.236 48.1265 31.082 47.3519 31.082H44.5239V34.876H47.3519ZM60.7575 40H59.4975L57.8175 36.836C57.6122 36.4533 57.3695 36.192 57.0895 36.052C56.8189 35.9027 56.4455 35.828 55.9695 35.828H54.1215V40H52.9875V30.13H57.0475C58.1209 30.13 58.9375 30.368 59.4975 30.844C60.0669 31.32 60.3515 32.02 60.3515 32.944C60.3515 33.7093 60.1322 34.33 59.6935 34.806C59.2642 35.2727 58.6482 35.5667 57.8455 35.688C58.0975 35.7627 58.3169 35.8887 58.5035 36.066C58.6995 36.2433 58.8769 36.4813 59.0355 36.78L60.7575 40ZM56.9495 34.876C57.7149 34.876 58.2842 34.7173 58.6575 34.4C59.0402 34.0827 59.2315 33.602 59.2315 32.958C59.2315 32.3233 59.0449 31.852 58.6715 31.544C58.2982 31.236 57.7242 31.082 56.9495 31.082H54.1215V34.876H56.9495ZM62.5852 40V30.13H63.7332V40H62.5852ZM73.4192 30.13H74.5952L70.2832 40H69.2892L64.9772 30.13H66.1812L69.7932 38.558L73.4192 30.13ZM82.5042 40L81.4122 37.466H76.2602L75.1682 40H73.9922L78.3322 30.13H79.3262L83.6662 40H82.5042ZM76.6662 36.514H81.0062L78.8362 31.46L76.6662 36.514ZM85.1301 40V30.13H86.2781V39.02H91.2201V40H85.1301Z" fill="white" fill-opacity="0.495556"/>
<path d="M51.152 101.872H59.944V104H40.064V101.872H48.856V67.936L41.744 72.64L40.288 70.68L48.856 64.912V64.856L49.416 64.52H51.152V101.872ZM88.4821 83.784C90.8341 84.4933 92.6635 85.7253 93.9701 87.48C95.3141 89.1973 95.9861 91.2693 95.9861 93.696C95.9861 97.056 94.8101 99.688 92.4581 101.592C90.1435 103.459 86.7835 104.392 82.3781 104.392C77.9728 104.392 74.5941 103.459 72.2421 101.592C69.9275 99.688 68.7701 97.056 68.7701 93.696C68.7701 91.2693 69.4235 89.1787 70.7301 87.424C72.0741 85.6693 73.9035 84.456 76.2181 83.784C74.2021 83.0373 72.5968 81.8427 71.4021 80.2C70.2448 78.5573 69.6661 76.6533 69.6661 74.488C69.6661 71.2773 70.7675 68.7387 72.9701 66.872C75.1728 65.0053 78.3088 64.072 82.3781 64.072C86.4475 64.072 89.5835 65.0053 91.7861 66.872C93.9888 68.7387 95.0901 71.2773 95.0901 74.488C95.0901 76.6533 94.4928 78.5573 93.2981 80.2C92.1035 81.8427 90.4981 83.0373 88.4821 83.784ZM72.1861 74.488C72.1861 77.1013 73.0448 79.1547 74.7621 80.648C76.5168 82.104 79.0555 82.832 82.3781 82.832C85.7008 82.832 88.2208 82.104 89.9381 80.648C91.6928 79.1547 92.5701 77.1013 92.5701 74.488C92.5701 71.912 91.6928 69.9147 89.9381 68.496C88.2208 67.04 85.7008 66.312 82.3781 66.312C79.0555 66.312 76.5168 67.04 74.7621 68.496C73.0448 69.9147 72.1861 71.912 72.1861 74.488ZM82.3781 102.152C89.7701 102.152 93.4661 99.3147 93.4661 93.64C93.4661 87.9653 89.7701 85.128 82.3781 85.128C74.9861 85.128 71.2901 87.9653 71.2901 93.64C71.2901 99.3147 74.9861 102.152 82.3781 102.152Z" fill="white"/>
<path d="M117.218 104V94.13H123.322V95.096H118.352V98.498H123.042V99.464H118.352V104H117.218ZM128.57 97.994L127.828 98.064C127.128 98.1293 126.62 98.3487 126.302 98.722C125.994 99.0953 125.84 99.5573 125.84 100.108V104H124.706V97.182H125.812V98.372C126.195 97.5787 126.946 97.1353 128.066 97.042L128.472 97.014L128.57 97.994ZM129.642 104V97.182H130.776V104H129.642ZM129.53 94.228H130.902V95.502H129.53V94.228ZM138.944 94.13V104H137.81V102.754C137.604 103.183 137.301 103.515 136.9 103.748C136.508 103.981 136.046 104.098 135.514 104.098C134.916 104.098 134.389 103.949 133.932 103.65C133.474 103.351 133.12 102.936 132.868 102.404C132.616 101.863 132.49 101.237 132.49 100.528C132.49 99.828 132.616 99.212 132.868 98.68C133.12 98.148 133.474 97.7373 133.932 97.448C134.389 97.1587 134.916 97.014 135.514 97.014C136.046 97.014 136.508 97.1307 136.9 97.364C137.301 97.5973 137.604 97.9287 137.81 98.358V94.13H138.944ZM135.738 103.16C136.4 103.16 136.909 102.936 137.264 102.488C137.628 102.031 137.81 101.387 137.81 100.556C137.81 99.7253 137.628 99.086 137.264 98.638C136.909 98.19 136.4 97.966 135.738 97.966C135.075 97.966 134.557 98.19 134.184 98.638C133.82 99.086 133.638 99.716 133.638 100.528C133.638 101.359 133.82 102.007 134.184 102.474C134.557 102.931 135.075 103.16 135.738 103.16ZM143.816 97.014C144.684 97.014 145.328 97.238 145.748 97.686C146.177 98.1247 146.392 98.7967 146.392 99.702V104H145.286V102.838C145.109 103.239 144.838 103.552 144.474 103.776C144.11 103.991 143.69 104.098 143.214 104.098C142.775 104.098 142.369 104.009 141.996 103.832C141.632 103.655 141.343 103.407 141.128 103.09C140.913 102.773 140.806 102.423 140.806 102.04C140.806 101.527 140.937 101.13 141.198 100.85C141.459 100.561 141.889 100.355 142.486 100.234C143.083 100.103 143.914 100.038 144.978 100.038H145.286V99.576C145.286 99.0067 145.169 98.596 144.936 98.344C144.703 98.0827 144.325 97.952 143.802 97.952C143.018 97.952 142.239 98.1947 141.464 98.68L141.086 97.854C141.441 97.602 141.865 97.4013 142.36 97.252C142.864 97.0933 143.349 97.014 143.816 97.014ZM143.368 103.202C143.928 103.202 144.385 103.015 144.74 102.642C145.104 102.259 145.286 101.769 145.286 101.172V100.766H145.034C144.213 100.766 143.587 100.803 143.158 100.878C142.729 100.943 142.421 101.06 142.234 101.228C142.057 101.387 141.968 101.625 141.968 101.942C141.968 102.306 142.099 102.609 142.36 102.852C142.631 103.085 142.967 103.202 143.368 103.202ZM153.354 97.196H154.488L150.456 106.52H149.294L150.442 103.916L147.558 97.196H148.762L151.044 102.768L153.354 97.196Z" fill="white" fill-opacity="0.495556"/>
<path d="M325.218 30.13H328.536C330.113 30.13 331.331 30.5593 332.19 31.418C333.058 32.2673 333.492 33.4807 333.492 35.058C333.492 36.6353 333.058 37.8533 332.19 38.712C331.331 39.5707 330.113 40 328.536 40H325.218V30.13ZM328.466 39.02C331.023 39.02 332.302 37.6993 332.302 35.058C332.302 32.426 331.023 31.11 328.466 31.11H326.366V39.02H328.466ZM335.568 40V30.13H341.812V31.082H336.702V34.512H341.532V35.464H336.702V39.048H341.812V40H335.568ZM343.716 30.13H347.622C348.658 30.13 349.461 30.382 350.03 30.886C350.609 31.39 350.898 32.104 350.898 33.028C350.898 33.952 350.609 34.6707 350.03 35.184C349.451 35.6973 348.649 35.954 347.622 35.954H344.864V40H343.716V30.13ZM347.51 35.002C349.013 35.002 349.764 34.344 349.764 33.028C349.764 31.7307 349.013 31.082 347.51 31.082H344.864V35.002H347.51ZM359.233 40L358.141 37.466H352.989L351.897 40H350.721L355.061 30.13H356.055L360.395 40H359.233ZM353.395 36.514H357.735L355.565 31.46L353.395 36.514ZM369.629 40H368.369L366.689 36.836C366.483 36.4533 366.241 36.192 365.961 36.052C365.69 35.9027 365.317 35.828 364.841 35.828H362.993V40H361.859V30.13H365.919C366.992 30.13 367.809 30.368 368.369 30.844C368.938 31.32 369.223 32.02 369.223 32.944C369.223 33.7093 369.003 34.33 368.565 34.806C368.135 35.2727 367.519 35.5667 366.717 35.688C366.969 35.7627 367.188 35.8887 367.375 36.066C367.571 36.2433 367.748 36.4813 367.907 36.78L369.629 40ZM365.821 34.876C366.586 34.876 367.155 34.7173 367.529 34.4C367.911 34.0827 368.103 33.602 368.103 32.958C368.103 32.3233 367.916 31.852 367.543 31.544C367.169 31.236 366.595 31.082 365.821 31.082H362.993V34.876H365.821ZM373.563 40V31.11H370.133V30.13H378.169V31.11H374.725V40H373.563ZM383.4 40.112C382.112 40.112 381.137 39.776 380.474 39.104C379.811 38.432 379.48 37.4427 379.48 36.136V30.13H380.614V36.234C380.614 37.1953 380.847 37.9187 381.314 38.404C381.79 38.8893 382.485 39.132 383.4 39.132C384.315 39.132 385.005 38.8893 385.472 38.404C385.939 37.9187 386.172 37.1953 386.172 36.234V30.13H387.32V36.136C387.32 37.4333 386.984 38.4227 386.312 39.104C385.649 39.776 384.679 40.112 383.4 40.112ZM397.451 40H396.191L394.511 36.836C394.306 36.4533 394.063 36.192 393.783 36.052C393.512 35.9027 393.139 35.828 392.663 35.828H390.815V40H389.681V30.13H393.741C394.814 30.13 395.631 30.368 396.191 30.844C396.76 31.32 397.045 32.02 397.045 32.944C397.045 33.7093 396.826 34.33 396.387 34.806C395.958 35.2727 395.342 35.5667 394.539 35.688C394.791 35.7627 395.01 35.8887 395.197 36.066C395.393 36.2433 395.57 36.4813 395.729 36.78L397.451 40ZM393.643 34.876C394.408 34.876 394.978 34.7173 395.351 34.4C395.734 34.0827 395.925 33.602 395.925 32.958C395.925 32.3233 395.738 31.852 395.365 31.544C394.992 31.236 394.418 31.082 393.643 31.082H390.815V34.876H393.643ZM399.279 40V30.13H405.523V31.082H400.413V34.512H405.243V35.464H400.413V39.048H405.523V40H399.279Z" fill="white" fill-opacity="0.495556"/>
<path d="M343.152 101.872H351.944V104H332.064V101.872H340.856V67.936L333.744 72.64L332.288 70.68L340.856 64.912V64.856L341.416 64.52H343.152V101.872ZM373.202 64.072C377.794 64.072 381.322 65.7147 383.786 69C386.287 72.2853 387.538 76.9707 387.538 83.056C387.538 89.8133 386.269 95.0773 383.73 98.848C381.191 102.581 377.626 104.448 373.034 104.448C370.831 104.448 368.685 104 366.594 103.104C364.541 102.208 362.674 100.92 360.994 99.24L362.17 97.28C364.074 98.9973 365.885 100.248 367.602 101.032C369.357 101.816 371.186 102.208 373.09 102.208C376.861 102.208 379.81 100.528 381.938 97.168C384.066 93.7707 385.13 89.048 385.13 83V80.872C384.309 83.336 382.834 85.2773 380.706 86.696C378.615 88.1147 376.189 88.824 373.426 88.824C370.962 88.824 368.778 88.32 366.874 87.312C365.007 86.2667 363.551 84.8107 362.506 82.944C361.461 81.0773 360.938 78.912 360.938 76.448C360.938 74.096 361.461 71.9867 362.506 70.12C363.551 68.216 365.007 66.7413 366.874 65.696C368.741 64.6133 370.85 64.072 373.202 64.072ZM373.37 86.584C375.349 86.584 377.122 86.1547 378.69 85.296C380.258 84.4373 381.471 83.2427 382.33 81.712C383.226 80.1813 383.674 78.4453 383.674 76.504C383.674 73.4427 382.722 70.9787 380.818 69.112C378.914 67.2453 376.413 66.312 373.314 66.312C370.327 66.312 367.938 67.2453 366.146 69.112C364.354 70.9787 363.458 73.4427 363.458 76.504C363.458 79.528 364.354 81.9733 366.146 83.84C367.975 85.6693 370.383 86.584 373.37 86.584Z" fill="white"/>
<path d="M408.822 80.144C407.658 80.144 406.65 79.88 405.798 79.352C404.958 78.824 404.304 78.074 403.836 77.102C403.38 76.13 403.152 74.978 403.152 73.646C403.152 72.314 403.38 71.162 403.836 70.19C404.292 69.218 404.946 68.474 405.798 67.958C406.65 67.43 407.658 67.166 408.822 67.166C409.998 67.166 411.006 67.43 411.846 67.958C412.698 68.474 413.352 69.218 413.808 70.19C414.276 71.15 414.51 72.296 414.51 73.628C414.51 74.972 414.276 76.13 413.808 77.102C413.352 78.074 412.698 78.824 411.846 79.352C410.994 79.88 409.986 80.144 408.822 80.144ZM408.822 79.136C410.25 79.136 411.36 78.656 412.152 77.696C412.944 76.736 413.34 75.386 413.34 73.646C413.34 71.906 412.944 70.562 412.152 69.614C411.372 68.654 410.262 68.174 408.822 68.174C407.394 68.174 406.284 68.654 405.492 69.614C404.712 70.574 404.322 71.918 404.322 73.646C404.322 75.374 404.712 76.724 405.492 77.696C406.284 78.656 407.394 79.136 408.822 79.136ZM420.662 80.144C419.81 80.144 419.078 79.958 418.466 79.586C417.854 79.202 417.38 78.668 417.044 77.984C416.72 77.288 416.558 76.484 416.558 75.572C416.558 74.192 416.918 73.106 417.638 72.314C418.37 71.51 419.378 71.108 420.662 71.108C421.19 71.108 421.712 71.21 422.228 71.414C422.744 71.618 423.176 71.9 423.524 72.26L423.092 73.088C422.72 72.728 422.324 72.47 421.904 72.314C421.484 72.146 421.082 72.062 420.698 72.062C419.726 72.062 418.976 72.368 418.448 72.98C417.932 73.592 417.674 74.462 417.674 75.59C417.674 76.718 417.932 77.606 418.448 78.254C418.976 78.89 419.726 79.208 420.698 79.208C421.082 79.208 421.484 79.13 421.904 78.974C422.324 78.806 422.72 78.542 423.092 78.182L423.524 79.01C423.176 79.358 422.738 79.634 422.21 79.838C421.694 80.042 421.178 80.144 420.662 80.144ZM428.654 80.144C427.682 80.144 426.95 79.88 426.458 79.352C425.978 78.824 425.738 78.068 425.738 77.084V72.152H424.01V71.27H425.738V68.57H426.836V71.27H429.662V72.152H426.836V76.94C426.836 77.672 426.986 78.23 427.286 78.614C427.586 78.998 428.084 79.19 428.78 79.19C428.984 79.19 429.182 79.166 429.374 79.118C429.566 79.07 429.734 79.016 429.878 78.956L430.094 79.82C429.962 79.904 429.752 79.976 429.464 80.036C429.176 80.108 428.906 80.144 428.654 80.144ZM431.96 81.908L431.402 81.458C431.654 81.194 431.822 80.942 431.906 80.702C432.002 80.474 432.062 80.24 432.086 80H431.366V78.452H432.896V79.604C432.896 80.036 432.83 80.438 432.698 80.81C432.566 81.194 432.32 81.56 431.96 81.908ZM440.307 80V79.172L444.753 74.33C445.389 73.634 445.851 72.992 446.139 72.404C446.439 71.804 446.589 71.192 446.589 70.568C446.589 69.788 446.355 69.194 445.887 68.786C445.419 68.378 444.735 68.174 443.835 68.174C442.491 68.174 441.327 68.678 440.343 69.686L439.875 68.786C440.331 68.306 440.913 67.916 441.621 67.616C442.341 67.316 443.097 67.166 443.889 67.166C445.113 67.166 446.055 67.46 446.715 68.048C447.387 68.624 447.723 69.446 447.723 70.514C447.723 71.27 447.531 72.02 447.147 72.764C446.775 73.496 446.211 74.27 445.455 75.086L441.747 79.028H448.245V80H440.307ZM454.808 80.144C453.38 80.144 452.294 79.592 451.55 78.488C450.818 77.384 450.452 75.776 450.452 73.664C450.452 71.528 450.818 69.914 451.55 68.822C452.294 67.718 453.38 67.166 454.808 67.166C456.248 67.166 457.334 67.712 458.066 68.804C458.798 69.896 459.164 71.51 459.164 73.646C459.164 75.758 458.792 77.372 458.048 78.488C457.304 79.592 456.224 80.144 454.808 80.144ZM454.808 79.154C455.9 79.154 456.71 78.704 457.238 77.804C457.766 76.904 458.03 75.518 458.03 73.646C458.03 71.75 457.766 70.364 457.238 69.488C456.722 68.6 455.912 68.156 454.808 68.156C453.716 68.156 452.906 68.6 452.378 69.488C451.85 70.376 451.586 71.762 451.586 73.646C451.586 75.518 451.85 76.904 452.378 77.804C452.906 78.704 453.716 79.154 454.808 79.154ZM462.559 80V79.028H465.475V68.696L463.153 70.208L462.649 69.362L465.781 67.31H466.573V79.028H469.309V80H462.559ZM475.566 80.144C474.93 80.144 474.282 80.006 473.622 79.73C472.974 79.442 472.452 79.058 472.056 78.578L472.506 77.678C472.938 78.17 473.418 78.536 473.946 78.776C474.486 79.016 475.032 79.136 475.584 79.136C476.82 79.136 477.774 78.668 478.446 77.732C479.118 76.784 479.454 75.38 479.454 73.52V72.44C479.238 73.292 478.806 73.964 478.158 74.456C477.51 74.948 476.748 75.194 475.872 75.194C475.116 75.194 474.444 75.026 473.856 74.69C473.28 74.342 472.824 73.868 472.488 73.268C472.164 72.668 472.002 71.984 472.002 71.216C472.002 70.424 472.17 69.728 472.506 69.128C472.854 68.516 473.322 68.036 473.91 67.688C474.51 67.34 475.194 67.166 475.962 67.166C477.438 67.166 478.572 67.706 479.364 68.786C480.156 69.854 480.552 71.36 480.552 73.304C480.552 75.512 480.114 77.204 479.238 78.38C478.362 79.556 477.138 80.144 475.566 80.144ZM476.052 74.204C476.928 74.204 477.636 73.922 478.176 73.358C478.728 72.794 479.004 72.068 479.004 71.18C479.004 70.28 478.728 69.548 478.176 68.984C477.636 68.42 476.928 68.138 476.052 68.138C475.188 68.138 474.48 68.42 473.928 68.984C473.388 69.548 473.118 70.28 473.118 71.18C473.118 72.068 473.388 72.794 473.928 73.358C474.48 73.922 475.188 74.204 476.052 74.204Z" fill="white"/>
<path fill-rule="evenodd" clip-rule="evenodd" d="M504 82.132L505.061 81L508.502 84.7356L511.939 81L513 82.132L508.502 87L504 82.132Z" fill="white"/>
<path d="M642.7 40L641.608 37.466H636.456L635.364 40H634.188L638.528 30.13H639.522L643.862 40H642.7ZM636.862 36.514H641.202L639.032 31.46L636.862 36.514ZM645.325 30.13H648.643C650.221 30.13 651.439 30.5593 652.297 31.418C653.165 32.2673 653.599 33.4807 653.599 35.058C653.599 36.6353 653.165 37.8533 652.297 38.712C651.439 39.5707 650.221 40 648.643 40H645.325V30.13ZM648.573 39.02C651.131 39.02 652.409 37.6993 652.409 35.058C652.409 32.426 651.131 31.11 648.573 31.11H646.473V39.02H648.573ZM659.525 40.112C658.237 40.112 657.262 39.776 656.599 39.104C655.936 38.432 655.605 37.4427 655.605 36.136V30.13H656.739V36.234C656.739 37.1953 656.972 37.9187 657.439 38.404C657.915 38.8893 658.61 39.132 659.525 39.132C660.44 39.132 661.13 38.8893 661.597 38.404C662.064 37.9187 662.297 37.1953 662.297 36.234V30.13H663.445V36.136C663.445 37.4333 663.109 38.4227 662.437 39.104C661.774 39.776 660.804 40.112 659.525 40.112ZM665.806 40V30.13H666.954V39.02H671.896V40H665.806ZM673.996 40V31.11H670.566V30.13H678.602V31.11H675.158V40H673.996ZM682.778 40.112C681.238 40.112 680.006 39.6967 679.082 38.866L679.53 37.984C680.015 38.3947 680.51 38.6887 681.014 38.866C681.527 39.0433 682.12 39.132 682.792 39.132C683.585 39.132 684.196 38.978 684.626 38.67C685.055 38.362 685.27 37.928 685.27 37.368C685.27 37.0413 685.167 36.7753 684.962 36.57C684.756 36.3647 684.486 36.2013 684.15 36.08C683.814 35.9587 683.361 35.8327 682.792 35.702C682.026 35.5247 681.396 35.338 680.902 35.142C680.416 34.946 680.02 34.666 679.712 34.302C679.413 33.938 679.264 33.462 679.264 32.874C679.264 32.314 679.408 31.8193 679.698 31.39C679.996 30.9513 680.416 30.6153 680.958 30.382C681.508 30.1393 682.143 30.018 682.862 30.018C683.543 30.018 684.178 30.1253 684.766 30.34C685.363 30.5547 685.867 30.8627 686.278 31.264L685.844 32.146C685.377 31.7447 684.901 31.4553 684.416 31.278C683.94 31.0913 683.422 30.998 682.862 30.998C682.096 30.998 681.494 31.1613 681.056 31.488C680.626 31.8053 680.412 32.2533 680.412 32.832C680.412 33.3267 680.603 33.7 680.986 33.952C681.368 34.204 681.947 34.4187 682.722 34.596C683.571 34.8013 684.238 34.9927 684.724 35.17C685.209 35.338 685.61 35.5947 685.928 35.94C686.254 36.2853 686.418 36.7473 686.418 37.326C686.418 37.886 686.268 38.376 685.97 38.796C685.68 39.216 685.26 39.5427 684.71 39.776C684.159 40 683.515 40.112 682.778 40.112Z" fill="white" fill-opacity="0.495556"/>
<path d="M674.003 101.872V104H649.531V102.208L663.755 86.192C665.883 83.7653 667.414 81.6373 668.347 79.808C669.28 77.9413 669.747 76.056 669.747 74.152C669.747 71.6507 669.019 69.728 667.563 68.384C666.107 67.0027 664.054 66.312 661.403 66.312C659.312 66.312 657.315 66.7227 655.411 67.544C653.544 68.328 651.678 69.56 649.811 71.24L648.635 69.28C650.203 67.712 652.126 66.4613 654.403 65.528C656.718 64.5573 659.014 64.072 661.291 64.072C664.651 64.072 667.302 64.968 669.243 66.76C671.184 68.552 672.155 70.9973 672.155 74.096C672.155 76.3733 671.614 78.6133 670.531 80.816C669.486 82.9813 667.75 85.408 665.323 88.096L652.835 101.872H674.003Z" fill="white"/>
<path d="M775.096 40.112C774.163 40.112 773.351 39.9113 772.66 39.51C771.969 39.0993 771.437 38.516 771.064 37.76C770.7 36.9947 770.518 36.094 770.518 35.058C770.518 34.022 770.7 33.126 771.064 32.37C771.437 31.614 771.969 31.0353 772.66 30.634C773.351 30.2233 774.163 30.018 775.096 30.018C775.777 30.018 776.403 30.1253 776.972 30.34C777.541 30.5453 778.036 30.8533 778.456 31.264L778.022 32.146C777.546 31.7447 777.079 31.4553 776.622 31.278C776.165 31.1007 775.661 31.012 775.11 31.012C774.027 31.012 773.187 31.3667 772.59 32.076C772.002 32.776 771.708 33.77 771.708 35.058C771.708 36.3553 772.002 37.3587 772.59 38.068C773.187 38.768 774.027 39.118 775.11 39.118C775.661 39.118 776.165 39.0293 776.622 38.852C777.079 38.6747 777.546 38.3853 778.022 37.984L778.456 38.866C778.036 39.2767 777.541 39.5893 776.972 39.804C776.403 40.0093 775.777 40.112 775.096 40.112ZM787.399 30.13H788.533V40H787.399V35.478H781.491V40H780.357V30.13H781.491V34.498H787.399V30.13ZM790.966 40V30.13H792.114V40H790.966ZM794.548 40V30.13H795.696V39.02H800.638V40H794.548ZM802.109 30.13H805.427C807.004 30.13 808.222 30.5593 809.081 31.418C809.949 32.2673 810.383 33.4807 810.383 35.058C810.383 36.6353 809.949 37.8533 809.081 38.712C808.222 39.5707 807.004 40 805.427 40H802.109V30.13ZM805.357 39.02C807.914 39.02 809.193 37.6993 809.193 35.058C809.193 32.426 807.914 31.11 805.357 31.11H803.257V39.02H805.357ZM820.228 40H818.968L817.288 36.836C817.083 36.4533 816.84 36.192 816.56 36.052C816.29 35.9027 815.916 35.828 815.44 35.828H813.592V40H812.458V30.13H816.518C817.592 30.13 818.408 30.368 818.968 30.844C819.538 31.32 819.822 32.02 819.822 32.944C819.822 33.7093 819.603 34.33 819.164 34.806C818.735 35.2727 818.119 35.5667 817.316 35.688C817.568 35.7627 817.788 35.8887 817.974 36.066C818.17 36.2433 818.348 36.4813 818.506 36.78L820.228 40ZM816.42 34.876C817.186 34.876 817.755 34.7173 818.128 34.4C818.511 34.0827 818.702 33.602 818.702 32.958C818.702 32.3233 818.516 31.852 818.142 31.544C817.769 31.236 817.195 31.082 816.42 31.082H813.592V34.876H816.42ZM822.056 40V30.13H828.3V31.082H823.19V34.512H828.02V35.464H823.19V39.048H828.3V40H822.056ZM837.036 30.13H838.114V40H837.232L831.282 32.062V40H830.204V30.13H831.086L837.036 38.068V30.13Z" fill="white" fill-opacity="0.495556"/>
<path d="M805.011 104.448C800.68 104.448 797.376 102.749 795.099 99.352C792.822 95.9173 791.683 90.896 791.683 84.288C791.683 77.6427 792.803 72.6213 795.043 69.224C797.32 65.7893 800.643 64.072 805.011 64.072C809.379 64.072 812.683 65.7707 814.923 69.168C817.2 72.5653 818.339 77.5867 818.339 84.232C818.339 90.84 817.2 95.8613 814.923 99.296C812.646 102.731 809.342 104.448 805.011 104.448ZM805.011 102.096C808.67 102.096 811.376 100.64 813.131 97.728C814.923 94.816 815.819 90.3173 815.819 84.232C815.819 78.1093 814.942 73.6107 813.187 70.736C811.432 67.824 808.707 66.368 805.011 66.368C801.352 66.368 798.627 67.824 796.835 70.736C795.08 73.648 794.203 78.1467 794.203 84.232C794.203 90.28 795.08 94.7787 796.835 97.728C798.627 100.64 801.352 102.096 805.011 102.096Z" fill="white"/>
<rect x="911" y="48" width="226" height="48" rx="24" fill="#C8FF8C"/>
<path d="M941.844 78.144C940.735 78.144 939.785 77.9093 938.996 77.44C938.207 76.9707 937.599 76.304 937.172 75.44C936.756 74.576 936.548 73.5467 936.548 72.352C936.548 71.168 936.756 70.144 937.172 69.28C937.599 68.416 938.207 67.7493 938.996 67.28C939.785 66.8107 940.735 66.576 941.844 66.576C942.623 66.576 943.337 66.6987 943.988 66.944C944.649 67.1893 945.209 67.5467 945.668 68.016L945.156 69.088C944.665 68.6293 944.153 68.2987 943.62 68.096C943.097 67.8827 942.516 67.776 941.876 67.776C940.607 67.776 939.636 68.176 938.964 68.976C938.292 69.776 937.956 70.9013 937.956 72.352C937.956 73.8133 938.292 74.944 938.964 75.744C939.636 76.544 940.607 76.944 941.876 76.944C942.516 76.944 943.097 76.8427 943.62 76.64C944.153 76.4267 944.665 76.0907 945.156 75.632L945.668 76.704C945.209 77.1627 944.649 77.52 943.988 77.776C943.337 78.0213 942.623 78.144 941.844 78.144ZM948.73 78V66.72H950.042V71.712H956.81V66.72H958.122V78H956.81V72.848H950.042V78H948.73ZM961.902 78V66.72H969.022V67.824H963.182V71.728H968.686V72.832H963.182V76.896H969.022V78H961.902ZM977.063 78.144C975.954 78.144 975.004 77.9093 974.215 77.44C973.426 76.9707 972.818 76.304 972.391 75.44C971.975 74.576 971.767 73.5467 971.767 72.352C971.767 71.168 971.975 70.144 972.391 69.28C972.818 68.416 973.426 67.7493 974.215 67.28C975.004 66.8107 975.954 66.576 977.063 66.576C977.842 66.576 978.556 66.6987 979.207 66.944C979.868 67.1893 980.428 67.5467 980.887 68.016L980.375 69.088C979.884 68.6293 979.372 68.2987 978.839 68.096C978.316 67.8827 977.735 67.776 977.095 67.776C975.826 67.776 974.855 68.176 974.183 68.976C973.511 69.776 973.175 70.9013 973.175 72.352C973.175 73.8133 973.511 74.944 974.183 75.744C974.855 76.544 975.826 76.944 977.095 76.944C977.735 76.944 978.316 76.8427 978.839 76.64C979.372 76.4267 979.884 76.0907 980.375 75.632L980.887 76.704C980.428 77.1627 979.868 77.52 979.207 77.776C978.556 78.0213 977.842 78.144 977.063 78.144ZM983.949 78V66.72H985.261V71.84H985.293L990.765 66.72H992.445L986.557 72.208L992.797 78H991.069L985.293 72.688H985.261V78H983.949ZM998.97 78L1003.95 66.72H1005.07L1010.04 78H1008.68L1007.43 75.12H1001.56L1000.33 78H998.97ZM1004.49 68.256L1002.04 74.016H1006.97L1004.52 68.256H1004.49ZM1015.36 78L1010.43 66.72H1011.84L1015.98 76.336L1020.11 66.72H1021.49L1016.54 78H1015.36ZM1021.91 78L1026.88 66.72H1028L1032.98 78H1031.62L1030.37 75.12H1024.5L1023.27 78H1021.91ZM1027.43 68.256L1024.98 74.016H1029.91L1027.46 68.256H1027.43ZM1035.65 78V66.72H1036.96V78H1035.65ZM1040.75 78V66.72H1042.06V76.848H1047.8V78H1040.75ZM1049.03 78L1054.01 66.72H1055.13L1060.1 78H1058.74L1057.5 75.12H1051.62L1050.39 78H1049.03ZM1054.55 68.256L1052.1 74.016H1057.03L1054.58 68.256H1054.55ZM1062.78 78V66.72H1067.29C1068.45 66.72 1069.35 66.9813 1069.98 67.504C1070.62 68.016 1070.94 68.736 1070.94 69.664C1070.94 70.2827 1070.78 70.8107 1070.46 71.248C1070.14 71.6853 1069.69 72.0053 1069.13 72.208C1069.78 72.3787 1070.29 72.6933 1070.65 73.152C1071.02 73.6107 1071.21 74.192 1071.21 74.896C1071.21 75.8987 1070.88 76.6667 1070.23 77.2C1069.58 77.7333 1068.66 78 1067.48 78H1062.78ZM1064.06 71.76H1067.1C1068.79 71.76 1069.64 71.0987 1069.64 69.776C1069.64 68.4427 1068.79 67.776 1067.1 67.776H1064.06V71.76ZM1064.06 76.944H1067.35C1069.06 76.944 1069.91 76.256 1069.91 74.88C1069.91 73.504 1069.06 72.816 1067.35 72.816H1064.06V76.944ZM1074.59 78V66.72H1075.9V78H1074.59ZM1079.68 78V66.72H1080.99V76.848H1086.74V78H1079.68ZM1089.37 78V66.72H1090.68V78H1089.37ZM1097.23 78V67.856H1093.14V66.72H1102.66V67.856H1098.56V78H1097.23ZM1107.95 78V72.656L1103.63 66.72H1105.17L1108.64 71.504L1112.09 66.72H1113.58L1109.26 72.688V78H1107.95Z" fill="#333333"/>
<g clip-path="url(#clip1_992_82)">
<path d="M122.217 80.144C121.053 80.144 120.045 79.88 119.193 79.352C118.353 78.824 117.699 78.074 117.231 77.102C116.775 76.13 116.547 74.978 116.547 73.646C116.547 72.314 116.775 71.162 117.231 70.19C117.687 69.218 118.341 68.474 119.193 67.958C120.045 67.43 121.053 67.166 122.217 67.166C123.393 67.166 124.401 67.43 125.241 67.958C126.093 68.474 126.747 69.218 127.203 70.19C127.671 71.15 127.905 72.296 127.905 73.628C127.905 74.972 127.671 76.13 127.203 77.102C126.747 78.074 126.093 78.824 125.241 79.352C124.389 79.88 123.381 80.144 122.217 80.144ZM122.217 79.136C123.645 79.136 124.755 78.656 125.547 77.696C126.339 76.736 126.735 75.386 126.735 73.646C126.735 71.906 126.339 70.562 125.547 69.614C124.767 68.654 123.657 68.174 122.217 68.174C120.789 68.174 119.679 68.654 118.887 69.614C118.107 70.574 117.717 71.918 117.717 73.646C117.717 75.374 118.107 76.724 118.887 77.696C119.679 78.656 120.789 79.136 122.217 79.136ZM134.057 80.144C133.205 80.144 132.473 79.958 131.861 79.586C131.249 79.202 130.775 78.668 130.439 77.984C130.115 77.288 129.953 76.484 129.953 75.572C129.953 74.192 130.313 73.106 131.033 72.314C131.765 71.51 132.773 71.108 134.057 71.108C134.585 71.108 135.107 71.21 135.623 71.414C136.139 71.618 136.571 71.9 136.919 72.26L136.487 73.088C136.115 72.728 135.719 72.47 135.299 72.314C134.879 72.146 134.477 72.062 134.093 72.062C133.121 72.062 132.371 72.368 131.843 72.98C131.327 73.592 131.069 74.462 131.069 75.59C131.069 76.718 131.327 77.606 131.843 78.254C132.371 78.89 133.121 79.208 134.093 79.208C134.477 79.208 134.879 79.13 135.299 78.974C135.719 78.806 136.115 78.542 136.487 78.182L136.919 79.01C136.571 79.358 136.133 79.634 135.605 79.838C135.089 80.042 134.573 80.144 134.057 80.144ZM142.049 80.144C141.077 80.144 140.345 79.88 139.853 79.352C139.373 78.824 139.133 78.068 139.133 77.084V72.152H137.405V71.27H139.133V68.57H140.231V71.27H143.057V72.152H140.231V76.94C140.231 77.672 140.381 78.23 140.681 78.614C140.981 78.998 141.479 79.19 142.175 79.19C142.379 79.19 142.577 79.166 142.769 79.118C142.961 79.07 143.129 79.016 143.273 78.956L143.489 79.82C143.357 79.904 143.147 79.976 142.859 80.036C142.571 80.108 142.301 80.144 142.049 80.144ZM145.355 81.908L144.797 81.458C145.049 81.194 145.217 80.942 145.301 80.702C145.397 80.474 145.457 80.24 145.481 80H144.761V78.452H146.291V79.604C146.291 80.036 146.225 80.438 146.093 80.81C145.961 81.194 145.715 81.56 145.355 81.908ZM153.702 80V79.172L158.148 74.33C158.784 73.634 159.246 72.992 159.534 72.404C159.834 71.804 159.984 71.192 159.984 70.568C159.984 69.788 159.75 69.194 159.282 68.786C158.814 68.378 158.13 68.174 157.23 68.174C155.886 68.174 154.722 68.678 153.738 69.686L153.27 68.786C153.726 68.306 154.308 67.916 155.016 67.616C155.736 67.316 156.492 67.166 157.284 67.166C158.508 67.166 159.45 67.46 160.11 68.048C160.782 68.624 161.118 69.446 161.118 70.514C161.118 71.27 160.926 72.02 160.542 72.764C160.17 73.496 159.606 74.27 158.85 75.086L155.142 79.028H161.64V80H153.702ZM168.203 80.144C166.775 80.144 165.689 79.592 164.945 78.488C164.213 77.384 163.847 75.776 163.847 73.664C163.847 71.528 164.213 69.914 164.945 68.822C165.689 67.718 166.775 67.166 168.203 67.166C169.643 67.166 170.729 67.712 171.461 68.804C172.193 69.896 172.559 71.51 172.559 73.646C172.559 75.758 172.187 77.372 171.443 78.488C170.699 79.592 169.619 80.144 168.203 80.144ZM168.203 79.154C169.295 79.154 170.105 78.704 170.633 77.804C171.161 76.904 171.425 75.518 171.425 73.646C171.425 71.75 171.161 70.364 170.633 69.488C170.117 68.6 169.307 68.156 168.203 68.156C167.111 68.156 166.301 68.6 165.773 69.488C165.245 70.376 164.981 71.762 164.981 73.646C164.981 75.518 165.245 76.904 165.773 77.804C166.301 78.704 167.111 79.154 168.203 79.154ZM175.954 80V79.028H178.87V68.696L176.548 70.208L176.044 69.362L179.176 67.31H179.968V79.028H182.704V80H175.954ZM188.961 80.144C188.325 80.144 187.677 80.006 187.017 79.73C186.369 79.442 185.847 79.058 185.451 78.578L185.901 77.678C186.333 78.17 186.813 78.536 187.341 78.776C187.881 79.016 188.427 79.136 188.979 79.136C190.215 79.136 191.169 78.668 191.841 77.732C192.513 76.784 192.849 75.38 192.849 73.52V72.44C192.633 73.292 192.201 73.964 191.553 74.456C190.905 74.948 190.143 75.194 189.267 75.194C188.511 75.194 187.839 75.026 187.251 74.69C186.675 74.342 186.219 73.868 185.883 73.268C185.559 72.668 185.397 71.984 185.397 71.216C185.397 70.424 185.565 69.728 185.901 69.128C186.249 68.516 186.717 68.036 187.305 67.688C187.905 67.34 188.589 67.166 189.357 67.166C190.833 67.166 191.967 67.706 192.759 68.786C193.551 69.854 193.947 71.36 193.947 73.304C193.947 75.512 193.509 77.204 192.633 78.38C191.757 79.556 190.533 80.144 188.961 80.144ZM189.447 74.204C190.323 74.204 191.031 73.922 191.571 73.358C192.123 72.794 192.399 72.068 192.399 71.18C192.399 70.28 192.123 69.548 191.571 68.984C191.031 68.42 190.323 68.138 189.447 68.138C188.583 68.138 187.875 68.42 187.323 68.984C186.783 69.548 186.513 70.28 186.513 71.18C186.513 72.068 186.783 72.794 187.323 73.358C187.875 73.922 188.583 74.204 189.447 74.204Z" fill="white"/>
<path fill-rule="evenodd" clip-rule="evenodd" d="M210 82.132L211.061 81L214.502 84.7356L217.939 81L219 82.132L214.502 87L210 82.132Z" fill="white"/>
</g>
<path d="M406.133 104.126C405.359 104.126 404.659 104.028 404.033 103.832C403.408 103.627 402.867 103.333 402.409 102.95L402.815 102.026C403.291 102.39 403.791 102.661 404.313 102.838C404.836 103.015 405.443 103.104 406.133 103.104C406.973 103.104 407.594 102.95 407.995 102.642C408.406 102.325 408.611 101.909 408.611 101.396C408.611 100.985 408.462 100.659 408.163 100.416C407.874 100.173 407.384 99.982 406.693 99.842L405.237 99.548C404.36 99.3613 403.702 99.058 403.263 98.638C402.834 98.2087 402.619 97.6393 402.619 96.93C402.619 96.342 402.769 95.8287 403.067 95.39C403.375 94.9513 403.8 94.6107 404.341 94.368C404.883 94.1253 405.508 94.004 406.217 94.004C406.88 94.004 407.496 94.1113 408.065 94.326C408.635 94.5313 409.115 94.83 409.507 95.222L409.101 96.118C408.681 95.7353 408.238 95.46 407.771 95.292C407.305 95.1147 406.782 95.026 406.203 95.026C405.466 95.026 404.878 95.1987 404.439 95.544C404.001 95.88 403.781 96.328 403.781 96.888C403.781 97.336 403.917 97.6907 404.187 97.952C404.467 98.2133 404.92 98.4047 405.545 98.526L407.001 98.834C407.944 99.03 408.639 99.3287 409.087 99.73C409.545 100.122 409.773 100.659 409.773 101.34C409.773 101.891 409.624 102.376 409.325 102.796C409.036 103.216 408.616 103.543 408.065 103.776C407.524 104.009 406.88 104.126 406.133 104.126ZM413.543 104.126C413.076 104.126 412.656 104.037 412.283 103.86C411.919 103.673 411.629 103.421 411.415 103.104C411.2 102.787 411.093 102.432 411.093 102.04C411.093 101.545 411.219 101.153 411.471 100.864C411.732 100.575 412.157 100.369 412.745 100.248C413.342 100.117 414.154 100.052 415.181 100.052H415.629V99.618C415.629 99.0393 415.507 98.624 415.265 98.372C415.031 98.1107 414.653 97.98 414.131 97.98C413.72 97.98 413.323 98.0407 412.941 98.162C412.558 98.274 412.166 98.4607 411.765 98.722L411.373 97.896C411.727 97.644 412.157 97.4433 412.661 97.294C413.174 97.1447 413.664 97.07 414.131 97.07C415.008 97.07 415.657 97.2847 416.077 97.714C416.506 98.1433 416.721 98.8107 416.721 99.716V104H415.657V102.824C415.479 103.225 415.204 103.543 414.831 103.776C414.467 104.009 414.037 104.126 413.543 104.126ZM413.725 103.272C414.285 103.272 414.742 103.081 415.097 102.698C415.451 102.306 415.629 101.811 415.629 101.214V100.794H415.195C414.439 100.794 413.841 100.831 413.403 100.906C412.973 100.971 412.67 101.093 412.493 101.27C412.325 101.438 412.241 101.671 412.241 101.97C412.241 102.353 412.371 102.665 412.633 102.908C412.903 103.151 413.267 103.272 413.725 103.272ZM421.554 104.126C420.752 104.126 420.15 103.916 419.748 103.496C419.347 103.067 419.146 102.451 419.146 101.648V98.078H417.816V97.196H419.146V95.11H420.28V97.196H422.436V98.078H420.28V101.536C420.28 102.068 420.392 102.474 420.616 102.754C420.84 103.025 421.204 103.16 421.708 103.16C421.858 103.16 422.007 103.141 422.156 103.104C422.306 103.067 422.441 103.029 422.562 102.992L422.758 103.86C422.637 103.925 422.46 103.986 422.226 104.042C421.993 104.098 421.769 104.126 421.554 104.126ZM426.127 104.126C424.494 104.126 423.677 103.225 423.677 101.424V97.196H424.811V101.41C424.811 102.017 424.932 102.465 425.175 102.754C425.427 103.043 425.819 103.188 426.351 103.188C426.93 103.188 427.401 102.997 427.765 102.614C428.129 102.222 428.311 101.704 428.311 101.06V97.196H429.445V104H428.339V102.852C428.124 103.263 427.821 103.58 427.429 103.804C427.046 104.019 426.612 104.126 426.127 104.126ZM431.567 104V97.196H432.673V98.414C433.037 97.5927 433.783 97.14 434.913 97.056L435.319 97.014L435.403 97.994L434.689 98.078C434.045 98.134 433.555 98.3393 433.219 98.694C432.883 99.0393 432.715 99.5153 432.715 100.122V104H431.567ZM439.092 104.126C438.486 104.126 437.954 103.981 437.496 103.692C437.048 103.403 436.698 102.997 436.446 102.474C436.204 101.942 436.082 101.317 436.082 100.598C436.082 99.87 436.204 99.2447 436.446 98.722C436.698 98.19 437.048 97.784 437.496 97.504C437.954 97.2147 438.486 97.07 439.092 97.07C439.624 97.07 440.091 97.1867 440.492 97.42C440.903 97.6533 441.206 97.9753 441.402 98.386V94.13H442.536V104H441.43V102.754C441.234 103.183 440.931 103.519 440.52 103.762C440.11 104.005 439.634 104.126 439.092 104.126ZM439.33 103.216C439.965 103.216 440.474 102.992 440.856 102.544C441.239 102.087 441.43 101.438 441.43 100.598C441.43 99.7487 441.239 99.1 440.856 98.652C440.474 98.204 439.965 97.98 439.33 97.98C438.686 97.98 438.173 98.204 437.79 98.652C437.417 99.1 437.23 99.7487 437.23 100.598C437.23 101.438 437.417 102.087 437.79 102.544C438.173 102.992 438.686 103.216 439.33 103.216ZM446.806 104.126C446.34 104.126 445.92 104.037 445.546 103.86C445.182 103.673 444.893 103.421 444.678 103.104C444.464 102.787 444.356 102.432 444.356 102.04C444.356 101.545 444.482 101.153 444.734 100.864C444.996 100.575 445.42 100.369 446.008 100.248C446.606 100.117 447.418 100.052 448.444 100.052H448.892V99.618C448.892 99.0393 448.771 98.624 448.528 98.372C448.295 98.1107 447.917 97.98 447.394 97.98C446.984 97.98 446.587 98.0407 446.204 98.162C445.822 98.274 445.43 98.4607 445.028 98.722L444.636 97.896C444.991 97.644 445.42 97.4433 445.924 97.294C446.438 97.1447 446.928 97.07 447.394 97.07C448.272 97.07 448.92 97.2847 449.34 97.714C449.77 98.1433 449.984 98.8107 449.984 99.716V104H448.92V102.824C448.743 103.225 448.468 103.543 448.094 103.776C447.73 104.009 447.301 104.126 446.806 104.126ZM446.988 103.272C447.548 103.272 448.006 103.081 448.36 102.698C448.715 102.306 448.892 101.811 448.892 101.214V100.794H448.458C447.702 100.794 447.105 100.831 446.666 100.906C446.237 100.971 445.934 101.093 445.756 101.27C445.588 101.438 445.504 101.671 445.504 101.97C445.504 102.353 445.635 102.665 445.896 102.908C446.167 103.151 446.531 103.272 446.988 103.272ZM452.804 106.52L453.966 103.888L451.096 97.196H452.328L454.582 102.712L456.85 97.196H458.04L453.994 106.52H452.804Z" fill="white" fill-opacity="0.495556"/>
</g>
<defs>
<filter id="filter0_d_992_82" x="22" y="6" width="1146" height="184" filterUnits="userSpaceOnUse" color-interpolation-filters="sRGB">
<feFlood flood-opacity="0" result="BackgroundImageFix"/>
<feColorMatrix in="SourceAlpha" type="matrix" values="0 0 0 0 0 0 0 0 0 0 0 0 0 0 0 0 0 0 127 0" result="hardAlpha"/>
<feOffset dx="10" dy="10"/>
<feGaussianBlur stdDeviation="10"/>
<feColorMatrix type="matrix" values="0 0 0 0 0 0 0 0 0 0 0 0 0 0 0 0 0 0 0.0967221 0"/>
<feBlend mode="normal" in2="BackgroundImageFix" result="effect1_dropShadow_992_82"/>
<feBlend mode="normal" in="SourceGraphic" in2="effect1_dropShadow_992_82" result="shape"/>
</filter>
<filter id="filter1_d_992_82" x="-10" y="-10" width="1210" height="184" filterUnits="userSpaceOnUse" color-interpolation-filters="sRGB">
<feFlood flood-opacity="0" result="BackgroundImageFix"/>
<feColorMatrix in="SourceAlpha" type="matrix" values="0 0 0 0 0 0 0 0 0 0 0 0 0 0 0 0 0 0 127 0" result="hardAlpha"/>
<feOffset dx="10" dy="10"/>
<feGaussianBlur stdDeviation="10"/>
<feColorMatrix type="matrix" values="0 0 0 0 0 0 0 0 0 0 0 0 0 0 0 0 0 0 0.0967221 0"/>
<feBlend mode="normal" in2="BackgroundImageFix" result="effect1_dropShadow_992_82"/>
<feBlend mode="normal" in="SourceGraphic" in2="effect1_dropShadow_992_82" result="shape"/>
</filter>
<clipPath id="clip0_992_82">
<rect width="1170" height="160" fill="white"/>
</clipPath>
<clipPath id="clip1_992_82">
<rect width="292" height="70" fill="white" transform="translate(0 25)"/>
</clipPath>
</defs>
</svg>
